<svg version="1" xmlns="http://www.w3.org/2000/svg" width="933.333" height="933.333" viewBox="0 0 700.000000 700.000000"><path d="M342 .6c-1.6.7-125.9 62.8-250.2 125.1-43.5 21.8-80.6 40.9-82.5 42.6-8.4 7.4-11.6 22.2-6.8 32.1 1.3 2.7 3.8 6.4 5.7 8.3 2.6 2.8 40.2 22 168.4 85.9 178 88.8 168.5 84.4 179.8 82.3 5.4-1 329.8-162.7 334.8-166.8 11.6-9.7 11.8-29.9.5-40.9-3.7-3.6-10.3-7-206.2-105L358.5.7 351 .4c-4.1-.2-8.2-.1-9 .2zm138.9 124.9C550.2 160.1 607 188.7 607 189c0 .3-57.9 29.5-128.7 64.8l-128.8 64.4-128.9-64.5C99.8 193.3 91.8 189.2 94.1 188c1.3-.8 59.3-29.8 128.9-64.6 117.9-59 126.6-63.2 129.1-62.1 1.5.7 59.4 29.5 128.8 64.2z"/><path d="M23.3 322.1c-5.8 1.1-11.2 4.1-15.4 8.6-6.2 6.7-7.2 9.1-7.5 17.8-.3 6.7.1 8.8 2.1 13 1.3 2.8 4.1 6.7 6.2 8.7 2.9 2.9 34 18.8 130.8 67.1 69.9 34.9 144 71.9 164.8 82.3l37.9 18.9H358.5L523 456.4c118.5-59.2 165.5-83.1 167.9-85.5 8.2-8.2 10.9-22.5 6-32.5-5.9-12.4-19.5-19-32.3-15.9-2.8.6-40 18.7-82.7 40.1-42.8 21.4-78.7 39.3-79.8 39.9-1.2.5-36 17.9-77.3 38.6l-75.2 37.6L194.1 401c-85.6-42.8-156.5-78-157.6-78.4-3.7-1.1-9-1.3-13.2-.5z"/><path d="M25.5 483.1c-9.8 1.3-17.2 6.2-22.3 14.8-2.3 4-2.7 5.7-2.7 12.6 0 6 .6 9.1 2.1 12.5 4.1 8.9 6.6 10.5 55.2 34.6 25.1 12.5 98.6 49 163.2 81.1 64.6 32.2 119.7 59 122.3 59.7 11.2 2.9 4.2 6 155.4-69.4 76.3-38.1 149.8-74.7 163.3-81.4 27.8-13.8 32.4-17.2 35.5-26.7 4.9-14.5-.7-28.7-14-35.7-4.1-2.1-6.4-2.6-12.7-2.6l-7.8-.1-135.2 67.9c-74.4 37.4-145 72.7-156.8 78.6l-21.4 10.8-155.1-77.6c-85.2-42.6-157-78-159.5-78.6-2.6-.7-6.6-.9-9.5-.5z"/></svg>